<?xml version="1.0" encoding="utf-8"?>
<!-- Generator: Adobe Illustrator 27.3.1, SVG Export Plug-In . SVG Version: 6.00 Build 0)  -->
<svg version="1.1" id="Layer_1" xmlns="http://www.w3.org/2000/svg" xmlns:xlink="http://www.w3.org/1999/xlink" x="0px" y="0px"
	 viewBox="0 0 1366 768" style="enable-background:new 0 0 1366 768;" xml:space="preserve">
<style type="text/css">
	.st0{fill:none;stroke:#000000;stroke-miterlimit:10;}
	.st1{display:none;}
	.st2{display:inline;fill:none;stroke:#000000;stroke-miterlimit:10;}
</style>
<g id="Layer_1_00000061457704961201114180000005856625334468577166_">
	<polygon class="st0" points="575,620 652.17,581.82 741.65,598.36 782,561 762,546 792,502 765,469 734,487 749,468 725,405 
		701,396 675,344 631,331 677,294 692,252 657,232 616,250 626,230 617.73,221.03 656.13,190.45 633.16,188.56 615.19,205.73 
		590.49,181.02 583.68,213.95 567.24,233.58 576.79,250.55 553.5,237.5 538.5,249.5 551.5,265.5 569.5,274.5 559.5,300.5 
		555.26,306.15 550.5,312.5 561,318 586.5,281.5 571.5,326.5 547.5,336.5 553.5,351.5 562.5,342.5 572.5,336.5 575.5,347.5 
		567.5,363.5 558.5,372.5 538.58,377.65 517.57,392.87 502.5,406.5 512.5,421.5 524.09,429.58 532.5,408.5 550.66,435.86 
		563.46,422.82 580.5,404.5 557.5,373.5 569.5,362.5 577.5,358.5 579.5,342.5 588.5,334.5 602.5,351.5 577.95,384.9 588.33,398.67 
		595.5,387.5 603.31,396.73 609.5,384.5 621.5,393.5 630.36,374.51 651.5,382 637.5,388.5 627.7,408.73 645.4,430.17 656.5,420.5 
		642.67,457.05 619.5,468.5 609.5,457.5 600.5,464.5 610.5,475.5 598.5,489.5 618.17,478.83 610.01,509.46 580.5,533.5 588.5,537.5 
		586.5,543.5 593.5,547.5 610.5,539.5 638.5,556.5 663.43,538.04 651.5,558.5 659.35,567.65 618.17,560.16 572.5,616.5 	"/>
</g>
<g id="Layer_2_00000111190764004757971430000008361292545207571092_" class="st1">
	<polyline class="st2" points="594,627 680,585 750,604 781,574 756,546 791.45,499.77 768,471 730,493 756,453 678.51,323.88 
		630.51,342.88 690,261 671,226 619,252 636,206 580.51,182.88 556.51,282.88 597,266 554.51,356.88 501,394 522.51,432.88 579,401 
		554.51,356.88 580,329 612.51,341.88 587,407 646.5,374 654.5,391 631.5,406.5 641,433 664,414 643,474 603,455 622,500 
		582.51,532.88 664.51,557.88 615,580 574.51,617.88 	"/>
</g>
</svg>
